<svg width="23" height="24" xmlns="http://www.w3.org/2000/svg" xmlns:xlink="http://www.w3.org/1999/xlink" xml:space="preserve" overflow="hidden"><g transform="translate(-782 -314)"><path d="M11.495 2.39583C6.46966 2.39583 2.39583 6.46966 2.39583 11.495 2.39583 16.5203 6.46966 20.5941 11.495 20.5941 16.5203 20.5941 20.5941 16.5203 20.5941 11.495 20.5941 11.4947 20.5941 11.4945 20.5941 11.4943 20.5958 6.47105 16.5251 2.39756 11.5019 2.39583 11.4996 2.39583 11.4973 2.39583 11.495 2.39583ZM15.8334 14.6788L14.6788 15.8334 11.5 12.6546 8.32124 15.8334 7.16665 14.6788 10.3454 11.5 7.16665 8.32124 8.32124 7.16665 11.5 10.3454 14.6788 7.16665 15.8334 8.32124 12.6546 11.5 15.8334 14.6788Z" fill="#DD3333" transform="matrix(1 0 0 1.04348 782 314)"/></g></svg> 