<svg width="23" height="24" xmlns="http://www.w3.org/2000/svg" xmlns:xlink="http://www.w3.org/1999/xlink" xml:space="preserve" overflow="hidden"><g transform="translate(-782 -314)"><path d="M11.495 2.39583C6.46966 2.39583 2.39583 6.46966 2.39583 11.495 2.39583 16.5203 6.46966 20.5941 11.495 20.5941 16.5203 20.5941 20.5941 16.5203 20.5941 11.495 20.5941 11.4947 20.5941 11.4945 20.5941 11.4943 20.5958 6.47105 16.5251 2.39756 11.5019 2.39583 11.4996 2.39583 11.4973 2.39583 11.495 2.39583ZM13.6991 11.9296C12.3734 13.2529 11.0398 14.5879 9.69809 15.9347 8.55799 14.7892 7.41518 13.6464 6.26966 12.5063L7.4151 11.3608 9.69809 13.6438C10.8064 12.5195 11.9085 11.4031 13.0043 10.2947 14.0995 9.18634 14.7054 8.59146 15.8413 7.49369 15.8731 7.46182 15.9074 7.4302 15.9445 7.39785 15.9805 7.36733 16.0127 7.33259 16.0403 7.29435L17.2018 8.4398C15.8527 9.78147 15.0247 10.6056 13.6989 11.9289Z" fill="#3B7D23" transform="matrix(1 0 0 1.04348 782 314)"/></g></svg>