<svg width="96" height="96" xmlns="http://www.w3.org/2000/svg" xmlns:xlink="http://www.w3.org/1999/xlink" xml:space="preserve" overflow="hidden"><g transform="translate(-303 -556)"><path d="M351 566C330 566 313 583 313 604 313 625 330 642 351 642 372 642 389 625 389 604 389 583 372 566 351 566ZM349 576C351.8 576 354 578.2 354 581 354 583.8 351.8 586 349 586 346.2 586 344 583.8 344 581 344 578.2 346.2 576 349 576ZM361 632 341 632 341 626 348 626 348 596 342 596 342 590 354 590 354 596 354 626 361 626 361 632Z" fill="#3A3A3A"/></g></svg>