<svg width="96" height="96" xmlns="http://www.w3.org/2000/svg" xmlns:xlink="http://www.w3.org/1999/xlink" xml:space="preserve" overflow="hidden"><g transform="translate(-472 -556)"><path d="M531.3 593.3C527.1 593.3 523.8 589.9 523.8 585.8 523.8 581.7 527.2 578.3 531.3 578.3 535.5 578.3 538.8 581.7 538.8 585.8 538.8 589.9 535.4 593.3 531.3 593.3ZM548.2 581.1C547.8 579.7 547.3 578.4 546.6 577.2L548.2 572.5 544.6 568.9 539.9 570.5C538.7 569.8 537.4 569.3 536 568.9L533.8 564.5 528.8 564.5 526.6 568.9C525.2 569.3 523.9 569.8 522.7 570.5L518 568.9 514.4 572.5 516 577.2C515.3 578.4 514.8 579.7 514.4 581.1L510 583.3 510 588.3 514.4 590.5C514.8 591.9 515.3 593.2 516 594.4L514.4 599.1 517.9 602.6 522.6 601C523.8 601.7 525.1 602.2 526.5 602.6L528.7 607 533.7 607 535.9 602.6C537.3 602.2 538.6 601.7 539.8 601L544.5 602.6 548.1 599.1 546.5 594.4C547.2 593.2 547.8 591.8 548.2 590.5L552.6 588.3 552.6 583.3 548.2 581.1Z" fill="#3A3A3A"/><path d="M508.7 629.7C504.5 629.7 501.2 626.3 501.2 622.2 501.2 618 504.6 614.7 508.7 614.7 512.9 614.7 516.2 618.1 516.2 622.2 516.2 626.3 512.9 629.7 508.7 629.7L508.7 629.7ZM524 613.6 525.6 608.9 522 605.3 517.3 606.9C516.1 606.2 514.7 605.7 513.4 605.3L511.2 600.9 506.2 600.9 504 605.3C502.6 605.7 501.3 606.2 500.1 606.9L495.4 605.3 491.9 608.8 493.4 613.5C492.7 614.7 492.2 616.1 491.8 617.4L487.4 619.6 487.4 624.6 491.8 626.8C492.2 628.2 492.7 629.5 493.4 630.7L491.9 635.4 495.4 638.9 500.1 637.4C501.3 638.1 502.6 638.6 504 639L506.2 643.4 511.2 643.4 513.4 639C514.8 638.6 516.1 638.1 517.3 637.4L522 639 525.5 635.4 524 630.8C524.7 629.6 525.2 628.3 525.6 626.9L530 624.7 530 619.7 525.6 617.5C525.2 616.1 524.7 614.8 524 613.6Z" fill="#3A3A3A"/></g></svg>